<svg width="15" height="14" viewBox="0 0 15 14" fill="none" xmlns="http://www.w3.org/2000/svg">
<g clip-path="url(#clip0_1_52)">
<path d="M4.074 1.767C4.07671 2.11279 3.94321 2.44574 3.70237 2.69388C3.46154 2.94202 3.13271 3.08539 2.787 3.093C2.44201 3.08047 2.11502 2.93586 1.87363 2.68907C1.63224 2.44228 1.4949 2.11218 1.49 1.767C1.50491 1.4306 1.64724 1.11248 1.88811 0.877181C2.12898 0.641882 2.45035 0.507034 2.787 0.5C3.12266 0.507168 3.44288 0.642355 3.68214 0.877889C3.92139 1.11342 4.06157 1.43149 4.074 1.767ZM1.629 5.449C1.629 4.687 2.114 4.806 2.787 4.806C3.46 4.806 3.935 4.687 3.935 5.449V12.873C3.935 13.645 3.45 13.487 2.787 13.487C2.124 13.487 1.629 13.645 1.629 12.873V5.449ZM5.935 5.45C5.935 5.024 6.093 4.865 6.34 4.816C6.587 4.767 7.439 4.816 7.736 4.816C8.033 4.816 8.152 5.301 8.142 5.667C8.39633 5.3265 8.73358 5.05676 9.12165 4.88347C9.50972 4.71018 9.93569 4.6391 10.359 4.677C10.7747 4.65162 11.1912 4.71396 11.5813 4.85999C11.9714 5.00602 12.3264 5.23247 12.6232 5.52463C12.9201 5.81679 13.1522 6.16812 13.3045 6.55582C13.4567 6.94351 13.5257 7.3589 13.507 7.775V12.843C13.507 13.615 13.032 13.457 12.358 13.457C11.685 13.457 11.21 13.615 11.21 12.843V8.884C11.2274 8.68027 11.2008 8.47518 11.132 8.28265C11.0631 8.09012 10.9536 7.91466 10.8109 7.76819C10.6683 7.62172 10.4958 7.50768 10.3051 7.43379C10.1144 7.35991 9.91011 7.32792 9.706 7.34C9.50267 7.33464 9.30053 7.37257 9.11298 7.45127C8.92542 7.52996 8.75674 7.64763 8.61812 7.79647C8.47949 7.94531 8.37409 8.12191 8.3089 8.31458C8.24371 8.50725 8.22023 8.71157 8.24 8.914V12.873C8.24 13.645 7.755 13.487 7.082 13.487C6.409 13.487 5.934 13.645 5.934 12.873V5.449L5.935 5.45Z" stroke="white" stroke-linecap="round" stroke-linejoin="round"/>
</g>
<defs>
<clipPath id="clip0_1_52">
<rect width="14" height="14" fill="white" transform="translate(0.5)"/>
</clipPath>
</defs>
</svg>
