<svg width="50" height="51" viewBox="0 0 50 51" fill="none" xmlns="http://www.w3.org/2000/svg">
<path d="M25 4.66666C13.5417 4.66666 4.16667 14.0417 4.16667 25.5C4.16667 36.9583 13.5417 46.3333 25 46.3333C36.4583 46.3333 45.8333 36.9583 45.8333 25.5C45.8333 14.0417 36.4583 4.66666 25 4.66666ZM25 29.6667C15.7917 29.6667 8.33334 27.8125 8.33334 25.5C8.33334 23.2083 15.7917 21.3333 25 21.3333C34.2083 21.3333 41.6667 23.2083 41.6667 25.5C41.6667 27.8125 34.2083 29.6667 25 29.6667ZM25 8.83333C32.0208 8.83333 38.0208 13.1875 40.4792 19.3542C37.3542 18.0625 32.5208 17.1667 25 17.1667C20.4167 17.1667 14.0208 17.5625 9.52084 19.3542C11.9792 13.1875 17.9792 8.83333 25 8.83333ZM25 42.1667C17.9792 42.1667 11.9792 37.8125 9.52084 31.6458C12.6458 32.9375 17.4792 33.8333 25 33.8333C29.5833 33.8333 35.9792 33.4375 40.4792 31.6458C38.0208 37.8125 32.0208 42.1667 25 42.1667Z" fill="#4BAF47"/>
</svg>
